<?xml version="1.0" encoding="UTF-8" standalone="no"?>
<!DOCTYPE svg PUBLIC "-//W3C//DTD SVG 1.1//EN" "http://www.w3.org/Graphics/SVG/1.1/DTD/svg11.dtd">
<!-- Created with Vectornator (http://vectornator.io/) -->
<svg height="100%" stroke-miterlimit="10" style="fill-rule:nonzero;clip-rule:evenodd;stroke-linecap:round;stroke-linejoin:round;" version="1.1" viewBox="0 0 1920 1080" width="100%" xml:space="preserve" xmlns="http://www.w3.org/2000/svg" xmlns:vectornator="http://vectornator.io" xmlns:xlink="http://www.w3.org/1999/xlink">
<defs/>
<clipPath id="ArtboardFrame">
<rect height="1080" width="1920" x="0" y="0"/>
</clipPath>
<g clip-path="url(#ArtboardFrame)" id="Layer-1" vectornator:layerName="Layer 1">
<path d="M1.34396 0.475113L1916.13 0.475113L1916.13 1087.17L1.34396 1087.17L1.34396 0.475113Z" fill="#084e0d" fill-rule="nonzero" opacity="1" stroke="#000000" stroke-linecap="butt" stroke-linejoin="miter" stroke-width="1.245"/>
<g opacity="1">
<path d="M320.927 208.5L463.217 115.357L482.216 102.921L508.03 86.0227L531.49 101.095L696.345 207.012" fill="#412293" fill-rule="nonzero" opacity="1" stroke="#412293" stroke-linecap="butt" stroke-linejoin="miter" stroke-width="1.245"/>
<g opacity="1">
<path d="M495.156 89.375C494.726 89.3741 494.396 89.4658 494.219 89.6875C490.942 92.17 487.854 95.2244 484.125 97.0312C481.099 98.4973 477.779 99.0573 474.594 100.062C472.704 100.659 470.936 101.479 469.219 102.469C466.52 104.024 464.039 105.955 461.5 107.75C459.423 109.218 457.304 110.59 455.188 112C445.121 118.706 435.16 125.5 426.469 133.969C425.054 135.751 432.787 144.224 443.719 152.906C454.651 161.588 464.648 167.188 466.062 165.406C475.109 156.58 485.564 149.625 496.031 142.625C497.669 141.53 499.298 140.451 500.906 139.312C503.403 137.545 505.845 135.657 508.5 134.125C509.769 133.393 511.057 132.713 512.438 132.219C516.02 130.936 519.835 130.395 523.281 128.719C527.112 126.855 530.289 123.773 533.656 121.219C535.075 119.445 527.385 110.955 516.5 102.25C506.976 94.633 498.165 89.3811 495.156 89.375Z" fill="#ffffff" stroke="none"/>
</g>
<g opacity="1">
<path d="M493.156 84.75C491.747 86.2999 498.303 94.5723 507.812 103.219C517.322 111.865 526.185 117.612 527.594 116.062C533.674 117.986 539.749 119.833 545.781 121.906C549.496 123.183 553.284 124.476 556.812 126.219C558.461 127.033 559.918 128.149 561.406 129.219C562.77 130.199 564.135 131.178 565.5 132.156C569.645 135.126 573.827 138.099 578.125 140.844C586.574 146.239 595.622 150.652 604.281 155.688C604.325 155.714 604.348 155.702 604.375 155.719C604.427 155.749 604.479 155.782 604.531 155.812C605.303 156.315 606.069 156.847 606.844 157.344C607.817 156.623 605.018 151.191 600.594 145.219C596.17 139.247 591.817 134.966 590.844 135.688C583.977 131.282 576.934 127.178 569.75 123.312C567.879 122.306 566.017 121.282 564.125 120.312C564.157 120.332 564.087 120.283 564.031 120.25C563.969 120.218 563.906 120.188 563.844 120.156C563.102 119.699 562.353 119.252 561.594 118.812C561.575 118.799 561.55 118.794 561.531 118.781C561.08 118.473 560.64 118.149 560.188 117.844C558.729 116.86 557.311 115.782 555.875 114.75C551.355 111.502 546.784 108.311 542.094 105.312C536.56 101.774 530.876 98.4653 524.875 95.7812C514.658 91.212 503.806 88.1218 493.156 84.75Z" fill="#ffffff" stroke="none"/>
</g>
<g opacity="1">
<path d="M522.812 104.062C522.384 104.058 522.085 104.187 521.906 104.406C516.416 106.695 511.046 109.198 505.781 111.969C497.325 116.419 489.085 121.327 480.531 125.594C467.293 132.197 453.468 137.472 440.781 145.156C439.357 146.926 447.016 155.449 457.875 164.188C468.734 172.926 478.67 178.582 480.094 176.812C492.733 169.148 506.529 163.868 519.719 157.281C528.28 153.006 536.505 148.116 544.969 143.656C550.182 140.91 555.501 138.395 560.938 136.125C562.366 134.368 554.782 125.826 544 117.062C534.566 109.395 525.811 104.092 522.812 104.062Z" fill="#ffffff" stroke="none"/>
</g>
<g opacity="1">
<path d="M556.875 120.75C556.445 120.749 556.146 120.841 555.969 121.062C537.317 134.418 515.697 141.541 494.438 149.469C485.544 152.785 476.748 156.337 468.156 160.375C466.728 162.138 474.342 170.675 485.156 179.438C495.97 188.2 505.884 193.856 507.312 192.094C515.851 188.076 524.599 184.582 533.438 181.281C548.555 175.636 563.898 170.428 578.281 163.031C584.219 159.978 589.917 156.514 595.344 152.625C596.764 150.852 589.094 142.337 578.219 133.625C568.703 126.002 559.883 120.758 556.875 120.75Z" fill="#ffffff" stroke="none"/>
</g>
</g>
<g opacity="1">
<path d="M56.2895 240.374L229.734 113.179L252.892 96.1961L284.358 73.1203L312.954 93.7031L513.904 238.342" fill="#412293" fill-rule="nonzero" opacity="1" stroke="#412293" stroke-linecap="butt" stroke-linejoin="miter" stroke-width="1.245"/>
<g opacity="1">
<path d="M272.75 83.5938C272.32 83.5936 271.99 83.6841 271.812 83.9062C269.755 85.6527 267.772 87.4947 265.75 89.2812C263.804 91.0006 261.762 92.7236 259.469 93.9688C255.817 95.9516 251.744 96.7847 247.844 98.125C245.523 98.9225 243.373 100.044 241.312 101.375C238.003 103.512 235.013 106.112 231.938 108.562C229.707 110.339 227.41 112.044 225.125 113.75C217.26 119.621 209.359 125.469 201.969 131.938C197.498 135.85 193.262 139.995 189.25 144.375C187.837 146.159 195.584 154.646 206.531 163.312C217.478 171.979 227.494 177.534 228.906 175.75C232.882 171.406 237.07 167.287 241.5 163.406C248.858 156.96 256.732 151.133 264.562 145.281C267.254 143.27 269.916 141.266 272.531 139.156C275.17 137.027 277.804 134.844 280.656 133C282.401 131.872 284.211 130.884 286.156 130.156C290.337 128.592 294.734 127.779 298.688 125.625C301.482 124.103 303.929 121.927 306.281 119.812C307.946 118.317 309.607 116.855 311.312 115.406C312.729 113.629 305.027 105.129 294.125 96.4375C284.586 88.8326 275.759 83.5951 272.75 83.5938Z" fill="#ffffff" stroke="none"/>
</g>
<g opacity="1">
<path d="M270.406 77.25C269.01 78.7612 275.415 86.9332 284.688 95.5C293.96 104.067 302.604 109.792 304 108.281C311.924 111.09 319.89 113.807 327.719 116.875C330.45 117.945 333.146 119.056 335.812 120.281C336.584 120.636 337.374 120.978 338.125 121.375C338.386 121.513 338.62 121.665 338.875 121.812C338.907 121.831 338.917 121.843 338.969 121.875C342.06 124.246 345.054 126.752 348.094 129.188C352.926 133.058 357.869 136.9 362.906 140.5C367.044 143.457 371.353 146.283 375.656 149C380.424 152.011 385.343 154.793 390.125 157.781C391.797 158.826 393.442 159.929 395.094 161C395.263 161.11 395.424 161.235 395.594 161.344C396.344 161.883 397.096 162.431 397.844 162.969C398.496 162.718 397.786 159.285 396.25 155.281C394.714 151.278 392.934 148.218 392.281 148.469C381.647 140.827 370.602 133.792 359.312 127.156C359.206 127.099 359.103 127.032 359 126.969C358.793 126.847 358.613 126.684 358.406 126.562C358.106 126.363 357.801 126.168 357.5 125.969C357.211 125.777 356.914 125.598 356.625 125.406C356.358 125.192 356.082 124.992 355.812 124.781C355.996 124.954 355.514 124.551 355.219 124.312C355.177 124.282 355.136 124.249 355.094 124.219C354.856 124.032 354.122 123.491 354.375 123.656C354.287 123.588 354.211 123.507 354.125 123.438C353.001 122.531 351.874 121.625 350.75 120.719C347.611 118.188 344.446 115.678 341.25 113.219C330.696 105.097 319.67 97.3268 307.625 91.5625C295.634 85.824 282.914 81.6861 270.406 77.25Z" fill="#ffffff" stroke="none"/>
</g>
<g opacity="1">
<path d="M306.406 103.688C305.978 103.684 305.678 103.811 305.5 104.031C298.766 107.122 292.257 110.612 285.875 114.375C275.555 120.46 265.555 127.122 255.094 132.969C244.881 138.676 234.283 143.611 224 149.188C218.048 152.415 212.259 155.885 206.656 159.688C205.234 161.46 212.904 169.992 223.781 178.719C234.659 187.445 244.609 193.085 246.031 191.312C251.587 187.539 257.348 184.079 263.25 180.875C273.535 175.292 284.16 170.339 294.375 164.625C304.843 158.769 314.83 152.095 325.156 146C331.484 142.266 337.917 138.787 344.594 135.719C346.021 133.959 338.424 125.443 327.625 116.688C318.176 109.026 309.407 103.714 306.406 103.688Z" fill="#ffffff" stroke="none"/>
</g>
<g opacity="1">
<path d="M347.969 126.438C347.539 126.437 347.24 126.559 347.062 126.781C339.918 132.513 332.341 137.597 324.344 142.062C307.613 151.404 289.643 158.222 272 165.594C261.136 170.133 250.394 174.926 240 180.469C238.574 182.235 246.195 190.749 257.031 199.5C267.868 208.251 277.824 213.922 279.25 212.156C289.589 206.638 300.287 201.895 311.094 197.375C328.795 189.971 346.778 183.068 363.562 173.688C371.632 169.177 379.292 164.069 386.5 158.281C387.918 156.506 380.237 148.011 369.344 139.312C359.812 131.701 350.978 126.441 347.969 126.438Z" fill="#ffffff" stroke="none"/>
</g>
</g>
<path d="M1124.89 521.55L922.748 522.448" fill="#412293" fill-rule="nonzero" opacity="1" stroke="#412293" stroke-linecap="butt" stroke-linejoin="miter" stroke-width="1.245"/>
<g opacity="1">
<path d="M216.516 322.132L389.96 194.937L413.119 177.954L444.585 154.878L473.181 175.461L674.13 320.1" fill="#412293" fill-rule="nonzero" opacity="1" stroke="#412293" stroke-linecap="butt" stroke-linejoin="miter" stroke-width="1.245"/>
<g opacity="1">
<path d="M432.969 165.344C432.539 165.344 432.24 165.465 432.062 165.688C430.005 167.434 427.991 169.245 425.969 171.031C424.023 172.751 421.98 174.474 419.688 175.719C416.036 177.702 411.963 178.535 408.062 179.875C405.742 180.673 403.592 181.826 401.531 183.156C398.221 185.294 395.232 187.862 392.156 190.312C389.926 192.089 387.629 193.794 385.344 195.5C377.479 201.371 369.578 207.219 362.188 213.688C357.717 217.6 353.481 221.745 349.469 226.125C348.056 227.909 355.803 236.396 366.75 245.062C377.697 253.729 387.712 259.315 389.125 257.531C393.1 253.187 397.289 249.037 401.719 245.156C409.077 238.71 416.95 232.883 424.781 227.031C427.472 225.02 430.166 223.016 432.781 220.906C435.42 218.777 438.023 216.594 440.875 214.75C442.619 213.622 444.43 212.634 446.375 211.906C450.556 210.342 454.952 209.529 458.906 207.375C461.701 205.853 464.147 203.708 466.5 201.594C468.165 200.098 469.826 198.605 471.531 197.156C472.948 195.379 465.246 186.879 454.344 178.188C444.805 170.583 435.978 165.345 432.969 165.344Z" fill="#ffffff" stroke="none"/>
</g>
<g opacity="1">
<path d="M430.625 159C429.229 160.511 435.634 168.683 444.906 177.25C454.179 185.817 462.823 191.542 464.219 190.031C472.143 192.84 480.108 195.557 487.938 198.625C490.669 199.695 493.396 200.806 496.062 202.031C496.834 202.386 497.593 202.728 498.344 203.125C498.604 203.263 498.87 203.415 499.125 203.562C499.206 203.609 499.422 203.77 499.344 203.719C502.384 206.057 505.319 208.54 508.312 210.938C513.145 214.808 518.088 218.65 523.125 222.25C527.262 225.207 531.603 228.064 535.906 230.781C540.674 233.792 545.561 236.543 550.344 239.531C551.944 240.531 553.514 241.597 555.094 242.625C556.068 243.348 557.078 244.043 558.062 244.75C558.715 244.5 558.005 241.035 556.469 237.031C554.933 233.028 553.152 230 552.5 230.25C541.865 222.608 530.822 215.542 519.531 208.906C519.413 208.842 519.302 208.759 519.188 208.688C518.993 208.574 518.819 208.426 518.625 208.312C518.324 208.113 518.019 207.918 517.719 207.719C517.372 207.489 517.034 207.261 516.688 207.031C516.477 206.862 516.244 206.729 516.031 206.562C516.198 206.719 515.788 206.359 515.5 206.125C515.44 206.08 515.373 206.044 515.312 206C514.983 205.74 514.67 205.451 514.344 205.188C513.22 204.281 512.093 203.375 510.969 202.469C507.829 199.938 504.696 197.428 501.5 194.969C490.946 186.847 479.888 179.077 467.844 173.312C455.853 167.574 443.133 163.436 430.625 159Z" fill="#ffffff" stroke="none"/>
</g>
<g opacity="1">
<path d="M466.656 185.469C466.228 185.465 465.897 185.561 465.719 185.781C458.985 188.872 452.475 192.362 446.094 196.125C435.774 202.21 425.805 208.872 415.344 214.719C405.131 220.426 394.501 225.361 384.219 230.938C378.267 234.165 372.478 237.666 366.875 241.469C365.453 243.242 373.122 251.742 384 260.469C394.878 269.195 404.859 274.835 406.281 273.062C411.837 269.289 417.566 265.829 423.469 262.625C433.754 257.042 444.379 252.089 454.594 246.375C465.062 240.519 475.048 233.845 485.375 227.75C491.702 224.016 498.167 220.568 504.844 217.5C506.271 215.74 498.674 207.193 487.875 198.438C478.426 190.776 469.657 185.495 466.656 185.469Z" fill="#ffffff" stroke="none"/>
</g>
<g opacity="1">
<path d="M508.219 208.219C507.789 208.218 507.458 208.309 507.281 208.531C500.137 214.263 492.56 219.347 484.562 223.812C467.832 233.154 449.893 240.003 432.25 247.375C421.386 251.914 410.613 256.676 400.219 262.219C398.792 263.985 406.445 272.53 417.281 281.281C428.118 290.032 438.043 295.672 439.469 293.906C449.808 288.388 460.506 283.645 471.312 279.125C489.014 271.721 507.028 264.849 523.812 255.469C531.882 250.959 539.542 245.819 546.75 240.031C548.168 238.256 540.487 229.761 529.594 221.062C520.062 213.451 511.228 208.222 508.219 208.219Z" fill="#ffffff" stroke="none"/>
</g>
</g>
</g>
<g id="Layer-3" vectornator:layerName="Layer 3"/>
<g id="Layer-2" vectornator:layerName="Layer 2">
<g opacity="1">
<path d="M159.968 734.43C159.968 734.43 159.968 734.43 159.968 734.43C159.968 734.43 159.968 734.43 159.968 734.43C159.968 734.43 159.968 734.429 159.969 734.43C159.969 734.43 159.969 734.431 159.969 734.432C159.97 734.433 159.97 734.435 159.969 734.437C159.968 734.44 159.967 734.442 159.964 734.444C159.962 734.446 159.957 734.446 159.952 734.441C159.947 734.436 159.941 734.425 159.938 734.404C159.934 734.383 159.933 734.352 159.945 734.313C159.956 734.274 159.98 734.226 160.026 734.2C160.072 734.174 160.142 734.169 160.229 734.255C160.315 734.34 160.42 734.521 160.478 734.873C160.535 735.225 160.546 735.764 160.357 736.423C160.168 737.081 159.767 737.882 158.987 738.322C158.207 738.763 157.015 738.844 155.557 737.4C154.098 735.956 152.325 732.898 151.35 726.946C150.375 720.994 150.193 711.89 153.392 700.76C156.59 689.63 163.361 676.095 176.541 668.652C189.722 661.209 209.881 659.824 234.526 684.238" fill="#3bd318" fill-rule="nonzero" opacity="1" stroke="#3bd318" stroke-linecap="butt" stroke-linejoin="miter" stroke-width="1.245"/>
<path d="M148.257 719.073L166.431 719.073L166.431 946.077L148.257 946.077L148.257 719.073Z" fill="#76490e" fill-rule="nonzero" opacity="1" stroke="#000000" stroke-linecap="butt" stroke-linejoin="miter" stroke-width="1.245"/>
<path d="M165.405 724.364C165.405 724.364 165.404 724.363 165.404 724.363C165.404 724.363 165.404 724.363 165.405 724.363C165.405 724.363 165.405 724.362 165.405 724.362C165.406 724.362 165.406 724.362 165.407 724.363C165.407 724.363 165.408 724.364 165.408 724.366C165.409 724.368 165.408 724.372 165.406 724.375C165.405 724.379 165.401 724.384 165.394 724.386C165.388 724.388 165.378 724.388 165.368 724.379C165.357 724.37 165.345 724.351 165.341 724.316C165.337 724.28 165.341 724.227 165.374 724.163C165.406 724.099 165.469 724.022 165.578 723.985C165.688 723.947 165.849 723.948 166.029 724.103C166.21 724.258 166.415 724.576 166.482 725.175C166.548 725.773 166.474 726.679 165.924 727.76C165.374 728.84 164.319 730.131 162.467 730.767C160.616 731.403 157.893 731.383 154.845 728.765C151.798 726.146 148.329 720.778 147.202 710.656C146.074 700.534 147.325 685.225 156.62 666.964C165.915 648.702 183.761 626.875 215.051 616.126" fill="#3bd318" fill-rule="nonzero" opacity="1" stroke="#3bd318" stroke-linecap="butt" stroke-linejoin="miter" stroke-width="1.245"/>
<path d="M153.344 725.463C153.344 725.463 153.344 725.463 153.344 725.463C153.344 725.463 153.344 725.463 153.344 725.463C153.344 725.463 153.344 725.463 153.343 725.463C153.343 725.464 153.343 725.464 153.343 725.466C153.343 725.467 153.343 725.469 153.344 725.471C153.345 725.474 153.347 725.476 153.35 725.477C153.353 725.478 153.357 725.477 153.362 725.471C153.366 725.464 153.371 725.451 153.372 725.427C153.373 725.404 153.369 725.37 153.353 725.331C153.336 725.292 153.305 725.247 153.254 725.232C153.202 725.216 153.128 725.23 153.05 725.345C152.972 725.46 152.886 725.682 152.873 726.077C152.859 726.471 152.919 727.053 153.202 727.71C153.485 728.367 154.007 729.121 154.875 729.385C155.744 729.649 156.994 729.417 158.32 727.473C159.645 725.528 161.086 721.764 161.316 715.102C161.546 708.441 160.537 698.603 155.749 687.494C150.961 676.385 142.143 663.649 127.466 659.184C112.788 654.718 91.6546 658.641 69.2531 691.507" fill="#3bd318" fill-rule="nonzero" opacity="1" stroke="#3bd318" stroke-linecap="butt" stroke-linejoin="miter" stroke-width="1.35915"/>
<path d="M152.227 698.871C152.227 698.871 152.227 698.871 152.227 698.871C152.227 698.871 152.227 698.87 152.227 698.87C152.227 698.87 152.226 698.87 152.226 698.87C152.226 698.87 152.225 698.87 152.225 698.871C152.224 698.873 152.224 698.875 152.224 698.877C152.224 698.88 152.225 698.884 152.228 698.888C152.23 698.891 152.234 698.894 152.241 698.893C152.247 698.891 152.256 698.885 152.263 698.866C152.271 698.847 152.278 698.814 152.275 698.766C152.271 698.718 152.257 698.652 152.215 698.593C152.172 698.533 152.101 698.478 151.994 698.505C151.888 698.532 151.742 698.644 151.61 698.966C151.478 699.288 151.356 699.835 151.416 700.648C151.475 701.461 151.723 702.571 152.436 703.579C153.149 704.586 154.362 705.517 156.162 705.063C157.962 704.61 160.42 702.717 162.651 697.274C164.882 691.831 166.943 682.576 165.939 668.834C164.934 655.092 160.743 636.334 148.69 619.306C136.638 602.278 116.144 586.541 85.7137 594.21" fill="#3bd318" fill-rule="nonzero" opacity="1" stroke="#3bd318" stroke-linecap="butt" stroke-linejoin="miter" stroke-width="1.3687"/>
</g>
<g opacity="1">
<path d="M407.403 772.727C407.403 772.727 407.403 772.727 407.403 772.727C407.403 772.727 407.403 772.726 407.403 772.726C407.404 772.726 407.404 772.726 407.405 772.727C407.405 772.727 407.406 772.728 407.406 772.729C407.406 772.731 407.407 772.733 407.405 772.735C407.404 772.738 407.402 772.741 407.397 772.743C407.392 772.745 407.385 772.745 407.376 772.739C407.368 772.734 407.357 772.721 407.351 772.697C407.345 772.673 407.344 772.636 407.363 772.59C407.383 772.545 407.424 772.49 407.503 772.46C407.583 772.429 407.705 772.424 407.854 772.523C408.003 772.622 408.184 772.833 408.284 773.242C408.383 773.651 408.402 774.277 408.075 775.042C407.748 775.808 407.056 776.738 405.709 777.25C404.363 777.762 402.303 777.857 399.784 776.178C397.266 774.5 394.203 770.947 392.519 764.029C390.835 757.112 390.522 746.532 396.046 733.599C401.57 720.665 413.263 704.935 436.027 696.285C458.792 687.636 493.61 686.027 536.175 714.398" fill="#3bd318" fill-rule="nonzero" opacity="1" stroke="#3bd318" stroke-linecap="butt" stroke-linejoin="miter" stroke-width="1.245"/>
<path d="M387.178 754.88L418.566 754.88L418.566 1018.68L387.178 1018.68L387.178 754.88Z" fill="#76490e" fill-rule="nonzero" opacity="1" stroke="#000000" stroke-linecap="butt" stroke-linejoin="miter" stroke-width="1.245"/>
<path d="M416.793 761.029C416.793 761.028 416.793 761.028 416.793 761.028C416.793 761.028 416.793 761.028 416.793 761.028C416.793 761.027 416.794 761.027 416.794 761.027C416.795 761.027 416.796 761.027 416.797 761.027C416.798 761.028 416.799 761.029 416.8 761.032C416.8 761.034 416.8 761.038 416.796 761.042C416.793 761.047 416.787 761.052 416.776 761.055C416.764 761.057 416.748 761.057 416.729 761.046C416.711 761.036 416.69 761.014 416.683 760.973C416.676 760.932 416.684 760.869 416.74 760.795C416.796 760.721 416.904 760.632 417.093 760.588C417.283 760.544 417.561 760.546 417.872 760.726C418.184 760.906 418.538 761.275 418.653 761.971C418.769 762.667 418.641 763.719 417.691 764.975C416.741 766.231 414.918 767.731 411.72 768.47C408.523 769.209 403.819 769.186 398.556 766.143C393.293 763.1 387.302 756.862 385.354 745.099C383.407 733.335 385.567 715.545 401.621 694.324C417.675 673.102 448.497 647.736 502.539 635.245" fill="#3bd318" fill-rule="nonzero" opacity="1" stroke="#3bd318" stroke-linecap="butt" stroke-linejoin="miter" stroke-width="1.245"/>
<path d="M395.964 762.307C395.964 762.307 395.964 762.306 395.964 762.306C395.964 762.306 395.963 762.306 395.963 762.306C395.963 762.306 395.962 762.306 395.962 762.306C395.961 762.307 395.961 762.308 395.961 762.309C395.961 762.311 395.961 762.313 395.963 762.316C395.964 762.319 395.968 762.322 395.973 762.323C395.978 762.324 395.986 762.323 395.994 762.315C396.002 762.307 396.01 762.292 396.012 762.265C396.013 762.238 396.007 762.198 395.978 762.152C395.949 762.107 395.896 762.055 395.807 762.037C395.718 762.019 395.591 762.035 395.455 762.169C395.32 762.302 395.173 762.561 395.149 763.019C395.125 763.477 395.229 764.154 395.718 764.917C396.207 765.681 397.108 766.557 398.608 766.864C400.108 767.171 402.267 766.901 404.556 764.641C406.845 762.382 409.334 758.008 409.732 750.266C410.13 742.524 408.387 731.092 400.116 718.182C391.846 705.273 376.618 690.471 351.268 685.282C325.918 680.093 289.418 684.652 250.727 722.846" fill="#3bd318" fill-rule="nonzero" opacity="1" stroke="#3bd318" stroke-linecap="butt" stroke-linejoin="miter" stroke-width="1.35915"/>
<path d="M394.034 731.404C394.034 731.403 394.034 731.403 394.034 731.403C394.034 731.403 394.034 731.403 394.034 731.402C394.033 731.402 394.033 731.402 394.032 731.402C394.032 731.402 394.031 731.403 394.03 731.404C394.029 731.405 394.028 731.407 394.029 731.411C394.029 731.414 394.031 731.419 394.035 731.423C394.039 731.427 394.047 731.431 394.057 731.429C394.068 731.427 394.083 731.419 394.097 731.397C394.11 731.375 394.123 731.337 394.117 731.281C394.11 731.225 394.085 731.149 394.012 731.08C393.939 731.011 393.815 730.947 393.632 730.978C393.448 731.009 393.196 731.139 392.968 731.513C392.741 731.888 392.53 732.524 392.633 733.469C392.735 734.414 393.163 735.703 394.395 736.874C395.627 738.045 397.721 739.127 400.83 738.6C403.94 738.072 408.184 735.873 412.037 729.547C415.89 723.222 419.451 712.467 417.716 696.497C415.98 680.527 408.742 658.729 387.925 638.94C367.109 619.152 331.713 600.864 279.157 609.776" fill="#3bd318" fill-rule="nonzero" opacity="1" stroke="#3bd318" stroke-linecap="butt" stroke-linejoin="miter" stroke-width="1.3687"/>
</g>
<g opacity="1">
<path d="M219.637 832.11C219.637 832.11 219.637 832.11 219.637 832.11C219.637 832.11 219.637 832.11 219.637 832.11C219.637 832.109 219.638 832.109 219.638 832.11C219.639 832.11 219.639 832.111 219.639 832.112C219.64 832.113 219.64 832.115 219.639 832.118C219.638 832.12 219.636 832.123 219.632 832.125C219.628 832.127 219.621 832.127 219.614 832.122C219.606 832.116 219.597 832.105 219.592 832.082C219.587 832.06 219.586 832.026 219.602 831.984C219.619 831.942 219.655 831.891 219.724 831.863C219.792 831.835 219.898 831.83 220.027 831.921C220.156 832.013 220.313 832.208 220.399 832.587C220.485 832.965 220.501 833.545 220.218 834.253C219.935 834.961 219.337 835.823 218.171 836.296C217.006 836.77 215.223 836.858 213.044 835.304C210.864 833.751 208.214 830.462 206.757 824.06C205.299 817.659 205.028 807.867 209.809 795.896C214.589 783.926 224.708 769.368 244.408 761.363C264.107 753.358 294.238 751.869 331.073 778.127" fill="#3bd318" fill-rule="nonzero" opacity="1" stroke="#3bd318" stroke-linecap="butt" stroke-linejoin="miter" stroke-width="1.245"/>
<path d="M202.134 815.592L229.297 815.592L229.297 1059.74L202.134 1059.74L202.134 815.592Z" fill="#76490e" fill-rule="nonzero" opacity="1" stroke="#000000" stroke-linecap="butt" stroke-linejoin="miter" stroke-width="1.245"/>
<path d="M227.763 821.283C227.763 821.283 227.763 821.283 227.763 821.283C227.763 821.283 227.763 821.283 227.763 821.282C227.763 821.282 227.763 821.282 227.764 821.282C227.764 821.281 227.765 821.281 227.766 821.282C227.767 821.283 227.768 821.284 227.769 821.286C227.769 821.288 227.769 821.292 227.766 821.296C227.763 821.3 227.757 821.305 227.748 821.307C227.738 821.31 227.724 821.309 227.708 821.3C227.692 821.29 227.674 821.27 227.668 821.231C227.662 821.193 227.668 821.136 227.717 821.067C227.766 820.998 227.859 820.916 228.023 820.876C228.186 820.835 228.427 820.836 228.697 821.003C228.966 821.17 229.273 821.511 229.373 822.155C229.472 822.799 229.362 823.774 228.54 824.936C227.718 826.098 226.14 827.487 223.373 828.171C220.606 828.855 216.535 828.833 211.981 826.016C207.426 823.2 202.242 817.427 200.556 806.54C198.871 795.653 200.74 779.188 214.633 759.547C228.526 739.906 255.199 716.43 301.965 704.869" fill="#3bd318" fill-rule="nonzero" opacity="1" stroke="#3bd318" stroke-linecap="butt" stroke-linejoin="miter" stroke-width="1.245"/>
<path d="M209.738 822.466C209.738 822.466 209.738 822.466 209.737 822.466C209.737 822.466 209.737 822.465 209.737 822.465C209.737 822.465 209.736 822.465 209.736 822.466C209.735 822.466 209.735 822.467 209.735 822.468C209.735 822.47 209.735 822.472 209.737 822.475C209.738 822.477 209.741 822.48 209.745 822.481C209.75 822.482 209.756 822.481 209.763 822.474C209.77 822.466 209.778 822.452 209.779 822.427C209.78 822.402 209.775 822.365 209.75 822.323C209.725 822.281 209.679 822.233 209.602 822.217C209.525 822.2 209.415 822.215 209.297 822.338C209.18 822.462 209.053 822.702 209.032 823.125C209.012 823.549 209.101 824.175 209.525 824.882C209.948 825.589 210.728 826.4 212.026 826.684C213.324 826.968 215.192 826.718 217.173 824.627C219.154 822.536 221.308 818.488 221.652 811.322C221.996 804.157 220.488 793.576 213.331 781.629C206.175 769.681 192.996 755.982 171.059 751.179C149.122 746.377 117.535 750.596 84.0532 785.945" fill="#3bd318" fill-rule="nonzero" opacity="1" stroke="#3bd318" stroke-linecap="butt" stroke-linejoin="miter" stroke-width="1.35915"/>
<path d="M208.067 793.865C208.067 793.865 208.068 793.865 208.067 793.865C208.067 793.864 208.067 793.864 208.067 793.864C208.067 793.864 208.067 793.864 208.066 793.864C208.065 793.864 208.065 793.864 208.064 793.865C208.063 793.867 208.063 793.869 208.063 793.872C208.063 793.875 208.065 793.879 208.068 793.883C208.072 793.887 208.078 793.89 208.088 793.888C208.097 793.887 208.11 793.879 208.122 793.859C208.133 793.838 208.144 793.804 208.139 793.752C208.134 793.7 208.112 793.63 208.049 793.565C207.986 793.501 207.878 793.442 207.719 793.471C207.56 793.5 207.343 793.62 207.145 793.967C206.948 794.313 206.766 794.902 206.855 795.776C206.944 796.651 207.314 797.844 208.38 798.928C209.446 800.012 211.258 801.013 213.949 800.525C216.64 800.037 220.313 798.001 223.647 792.147C226.981 786.293 230.063 776.339 228.561 761.559C227.059 746.779 220.795 726.604 202.781 708.29C184.767 689.976 154.137 673.049 108.656 681.298" fill="#3bd318" fill-rule="nonzero" opacity="1" stroke="#3bd318" stroke-linecap="butt" stroke-linejoin="miter" stroke-width="1.3687"/>
</g>
</g>
</svg>
